<?xml version="1.0" encoding="UTF-8"?>
<svg preserveAspectRatio="xMidYMid meet" id="Layer_1" data-name="Layer 1" xmlns="http://www.w3.org/2000/svg" viewBox="-32.38 0 996.88 996.88">
  <defs>
    <style>
      .cls-1 {
        fill: #e92928;
      }
    </style>
  </defs>
  <path class="cls-1" d="M285.47,601.99c-27.37,0-64.58,5.51-97.62,21.13-21.17,9.99-43.61,44.93-43.61,55.16,0,15.8,30.98-11.64,95.93-18.08-11.5,19.75-28.47,49.58-44.63,79.36-5.21-1.38-8.09-3.61-9.72-7.09-1.31-2.81-2.53-3.31-5.53-2.05-15.98,6.77-25.51,16.79-25.51,28.31,0,6.8,7.72,14.8,19.59,20.95-8.15,16.03-14.99,30.42-19.25,41.03-4.86,12.19-.96,27.9,9.61,32,3.96,1.52,14.96,1.11,18.84-8,8.18-19.08,16.22-37.95,24.02-55.57,2.62.23,5.3.38,8.01.38,51.04,0,156.78-23.68,156.78-113.09,0-65.03-65.33-74.47-86.94-74.47l.03.03ZM235.62,741.84h-5.65c11.82-22.72,40.21-67.26,44.72-82.91,46.64,1,66.76,10.99,66.76,22.8,0,17.76-38.64,60.11-105.83,60.11Z"/>
  <path class="cls-1" d="M459.99,668.39c12.46,0,31.07-16.41,31.07-34.41,0-6.57-5.77-13.36-16.8-13.36-20.2,0-29.81,18.37-29.81,28.49,0,8.15,3.61,19.28,15.55,19.28Z"/>
  <path class="cls-1" d="M782.97,749.3c-6.46,4.16-10.8,4.46-14.3,3.05,3.41-10.96,5.33-21.42,5.33-30.56s.64-20.81-17.32-20.81c4.89-4.37,17.73-24.09-24.58-24.09s-93.17,42.84-101.03,97.09c-12.26,13.04-29.67,28.11-37.41,28.11-5.91,0-8.88-7.09-8.88-12.28,0-9.35,8.09-25.17,18.75-39.97,13.01-18.08,29.7-34.7,29.7-45.95,0-5.25-1.25-27.23-13.19-27.23-16.74,0-101.79,81.5-120.95,103.22.44-5.66,7.19-27.17,21.25-45.92,12.43-16.59,21.95-24.64,21.95-31.8,0-6.56-8.59-10.43-14.53-10.43s-12.9,1.58-20.96,7.38c-18.49,13.33-40.07,48.12-47.17,74.64-22.65,25.23-41.96,31.8-53.02,31.8-9.67,0-14.64-9.29-14.64-18.08,0-20.13,18.9-38.45,33.8-56.24,14.76-17.61,24.52-30.62,24.52-39.44,0-10.93-5.04-15.24-11.41-15.24-7.02,0-35.87,8.62-60.12,43.11-19.22,27.31-26.06,54.63-26.06,75.64,0,30.42,11.79,57.3,33.34,57.3,25.62,0,57.3-31.1,71.21-47.92.29,22.83,2.71,48.03,20.82,48.03,10.98,0,17.15-14.27,29.2-30.89,18.86-26.02,43.23-59.9,60.21-73.09-24.05,39.21-26.26,58.79-26.26,74.73,0,18.79,8.5,29.1,25.24,29.1s49.21-30.56,64.29-52.08c2.83,24.38,14.41,52.02,43.79,52.02s59.11-30.04,78.44-64.3c.32,0,.64.06.96.06,25.77,0,33.95-29.07,33.95-35.64,0-4.66-3.12-4.34-4.95-3.19l.03-.12ZM685.56,817.15c-9.49,0-17.5-6.24-17.5-26.82,0-43.05,43.88-75.11,63.61-75.11,1.49,0,2.85.7,4.1,1.93-5.65,11.9-10.6,28.22-10.6,43.66,0,7.39,2.83,13.16,6.87,17.46-11.41,18.79-29.23,38.83-46.53,38.83l.03.03Z"/>
  <path class="cls-1" d="M383.95,330.45c-17.79,2.58-30.75,16.56-28.13,31.06,1.14,6.27,7.02,7.53,11.97,6.83,4.95-.7,9.17-7.24,18.4-8.56,9.23-1.32,12.14.44,17.41-.32,5.27-.76,10.19-8.59,9.11-16.24-1.28-8.97-10.95-15.33-28.74-12.75l-.03-.03Z"/>
  <path class="cls-1" d="M568.31,339.21c-6.23-.5-14.91,2.75-14.06,15.8.78,12.07,13.74,17.35,23.61,18.32,12.43,1.23,19.33,10.78,25.36,10.4,5.56-.35,7.4-5.36,7.05-10.99-1.31-20.48-30.92-32.65-41.93-33.53h-.03Z"/>
  <path class="cls-1" d="M688.03,462.52c4.9-31.44-15.02-60.75-26-77.25,10.3-14.62,23.35-37.69,18.08-52.02-6.64-18.08-22.88-28.69-34.56-28.72-2.62,0-5.09.59-7.42,1.52-8.97-42.17-31.27-64-44.81-74.73-11.76-9.32-36.02-23.97-83.8-29.28-4.8-31.3-10.8-58.55-26.73-58.55-14.09,0-28.18,20.28-32.52,40-.61,2.73-1.2,7.33-1.86,13.19-64.46-7.59-63.41-20.75-77.45-24.91-6.26-1.88-12.64,7.74-12.64,17.7,0,8.67,2.15,17.61,8.79,31.5-24.95,2.34-30.37-5.83-36.8-5.83-7.69,0-12,9.99-9.72,24,2.18,13.63,9.08,25.67,21.57,34.9-3.64,2.34-8.47,8.56-13.36,14.71-.44-.15-.84-.32-1.31-.44-10.42-2.84-27.4,2.81-37.56,17.64-8.71,12.72-.79,39.86,5.27,55.42-12.81,14.95-24.46,31.3-28.1,55.21-8.24,53.95,66.03,140.87,178.88,153.68,33.86,3.84,65.57,2.08,94.22-3.43,8.79,24.85,26.93,37.48,37.41,37.48,7.98,0,12.81-2.58,17.09-8.68,14.76,23.53,30.63,35.99,47.54,34.82,20.67-1.44,23-21.25,23-28.78,0-8.44-5.21-20.83-13.97-28.54,8.09,0,14.94-9.11,14.94-20.4,0-12.43-9.61-22.62-21.69-30.33,25.04-19.02,40.59-40.71,43.59-59.9h-.09ZM528.36,533.82c-14.99,0-7.13-20.34-10.25-53.66,0-.21.18-.38.38-.35,30.69,6.47,65.54,6.83,65.54,17.06,0,9.58-16.94,8.77-30.19,6.48-5.12-.88-8.76-1.76-16.48-4.16-.12-.03-.23.06-.23.18,1.16,12.54,7.02,34.46-8.74,34.46h-.03ZM579.66,539.48s-.2.03-.18.15c1.92,5.95,8.88,31.74-.44,36.05-10.8,4.98-18.93-1.41-22.45-11.02-4.54-12.43-3.7-26.96-5.27-50.35,0-.21.18-.38.35-.35,26.87,3.46,40.73,5.71,59.01,10.52,17.82,4.69,26.76,11.49,26.76,19.37,0,17.03-51.13-1.37-57.79-4.37ZM630.79,608.29c-14.58,0-29.06-25.14-35.37-50.76-.03-.15.11-.3.26-.26,28.24,7.88,46.76,24.94,46.76,37.83,0,7.97-3.87,13.16-11.64,13.16v.03ZM605.02,506.33c-.23-.06-.47-.11-.67-.15,3.2-3.46,5.77-6.92,5.77-12.48,0-15.59-19.04-13.95-45.59-18.26-17.24-2.78-32.23-8.18-48.22-16.65-7.33-3.9-12.4-11.34-16.6-18.67,42.28.15,52.79-6.18,61.64-9.73,7.19-2.87,9.43-23.09-3.2-21.33-12.64,1.76-45.37,9.88-79.13,8.91-33.77-.97-61.14-10.37-70.23-15.06-5.74-2.99-13.1-5.1-15.4,1.47-2.88,8.21,26.96,30.57,77.97,34.76,3.78,14.16,21.02,8,28.07,25.29,7.14,17.55,4.05,38.86,2.62,58.11-12.03.65-23.94.68-36.25.15-86.79-3.78-169.74-41.62-169.74-103.51,0-19.25,15.69-43.29,29.09-58.35,12.99-14.59,16.01-18.49,28.53-43.34,14.53-28.78,46.79-60.55,88.98-72.62-.67,4.66-1.43,9.41-2.24,14.21-5.24,30.57-17.24,56.59-16.22,78.31,1.02,21.04,14.06,36.75,35.06,32.35,5.09-1.05,6.96-6.24,6.02-10.76-1.54-7.44-7.28-6.62-11.64-10.93-4.1-4.04-4.72-9.14-5.21-15.12-1.98-23.24,5.47-59.14,8.82-82.99,2.65-18.84,6.87-76.34,16.68-83.58,4.08-3.02,7.95.97,9.32,11.37,3.49,27.14,10.05,84.64,12.29,97.5,4.17,23.77,19.48,59.08,21.08,66.82,1.6,7.77-2.47,13.39-7.22,14.36-6.46,1.35-6.46-1.32-11.64-.23-5.18,1.08-6.29,6.21-5.39,10.64,1.43,6.95,12.87,13.92,24.28,12.81,20.59-1.96,35.4-17.85,24.28-49.06-6.84-19.17-18.05-50.85-24.75-86.22,62.74,13.01,82.22,37.89,96.63,79.33,18.17,52.19,47.9,81.88,47.9,122.53,0,17.84-17.35,53.16-55.58,60.08l-.09.06Z"/>
</svg>